# xmcd
#
# Track frame offsets: 
#        150
#        17668
#        38256
#        55305
#        78582
#        95089
#        111259
#        129286
#        147617
#        162848
#        171128
#        191237
#        210650
#        226978
#        239165
#
# Disc length: 3459 seconds
#
# Revision: 1
# Processed by: cddbd v1.5.2PL0 Copyright (c) Steve Scherf et al.
# Submitted via: ExactAudioCopy v0.95a4
#
DISCID=d10d810f
DTITLE=The Charlie Daniels Band - Land That I Love
DYEAR=2010
DGENRE=Country
TTITLE0=My Beautiful America
TTITLE1=America, I Believe In You
TTITLE2=American Farmer
TTITLE3=Let Freedom Ring
TTITLE4=(What This World Needs Is) A Few More Rednecks 
TTITLE5=This Ain't No Rag, It's A Flag
TTITLE6=Still In Saigon
TTITLE7=Last Fallen Hero
TTITLE8=In America
TTITLE9=Star Spangled Banner
TTITLE10=Freedom And Justice For All
TTITLE11=Iraq Blues 
TTITLE12=Simple Man
TTITLE13=Red Skelton's Pledge Of Allegiance
TTITLE14=Summer Of 68
EXTD=Year: 2010\n\n\n\n\n\n                                           
EXTD=      www.charliedaniels.com
EXTT0=
EXTT1=
EXTT2=
EXTT3=
EXTT4=
EXTT5=
EXTT6=
EXTT7=
EXTT8=
EXTT9=
EXTT10=
EXTT11=
EXTT12=
EXTT13=
EXTT14=
PLAYORDER=
